IKResults
version=1
nRows=6
nColumns=63
inDegrees=yes

Units are S.I. units (second, meters, Newtons, ...)
If the header above contains a line with 'inDegrees', this indicates whether rotational values are in degrees (yes) or radians (no).

endheader
time	pelvis_tilt	pelvis_list	pelvis_rotation	pelvis_tx	pelvis_ty	pelvis_tz	hip_flexion_r	hip_adduction_r	hip_rotation_r	knee_angle_r	knee_angle_r_beta	ankle_angle_r	subtalar_angle_r	mtp_angle_r	hip_flexion_l	hip_adduction_l	hip_rotation_l	knee_angle_l	knee_angle_l_beta	ankle_angle_l	subtalar_angle_l	mtp_angle_l	L5_S1_Flex_Ext	L5_S1_Lat_Bending	L5_S1_axial_rotation	L4_L5_Flex_Ext	L4_L5_Lat_Bending	L4_L5_axial_rotation	L3_L4_Flex_Ext	L3_L4_Lat_Bending	L3_L4_axial_rotation	L2_L3_Flex_Ext	L2_L3_Lat_Bending	L2_L3_axial_rotation	L1_L2_Flex_Ext	L1_L2_Lat_Bending	L1_L2_axial_rotation	L1_T12_Flex_Ext	L1_T12_Lat_Bending	L1_T12_axial_rotation	Abs_r3	Abs_r2	Abs_r1	Abs_t1	Abs_t2	neck_flexion	neck_bending	neck_rotation	arm_flex_r	arm_add_r	arm_rot_r	elbow_flex_r	pro_sup_r	wrist_flex_r	wrist_dev_r	arm_flex_l	arm_add_l	arm_rot_l	elbow_flex_l	pro_sup_l	wrist_flex_l	wrist_dev_l
      6.03333333	    -19.38983331	     -6.43300002	      0.38349352	     -0.17346469	      0.91408505	      0.30533475	     28.47000526	     -0.71364212	    -16.87322438	      8.55659595	      0.14934077	     14.02779296	     -0.18275072	      0.00000000	     13.66593572	    -14.07986328	      7.54761883	     26.28933883	      0.45883552	     18.27564071	     -8.13854106	      0.00000000	      3.43674534	      0.69161410	     -0.82212494	      6.38237976	      0.91984676	     -0.87350775	      5.64622891	      1.68159053	     -0.87350775	      3.92785624	      1.68159053	     -0.71935932	      3.19136172	      1.41033948	     -0.66797651	      1.96375629	      1.07131025	     -0.61659370	     24.54832826	      7.82367706	     -4.57241227	      0.00000000	      0.00000000	      2.00805110	     -1.23542937	     -1.22742363	      0.00000000	    -90.00000009	      0.00000000	     75.23627606	     89.99559364	      0.00000000	      0.00000000	    -17.63551174	    -10.30267696	     -1.08390617	     37.53644622	     89.99559364	      0.00000000	      0.00000000
      6.06666667	    -19.39692840	     -5.04070519	      2.45657570	     -0.15476154	      0.91492189	      0.31870966	     27.54706374	     -2.55993354	    -22.66269270	      9.52358774	      0.16621796	     14.69715457	      6.13496267	      0.00000000	     15.51134153	    -12.27560735	     10.96579600	     29.51918382	      0.51520695	     14.18980473	    -12.93645023	      0.00000000	      3.52607286	      0.43901058	     -1.00146185	      6.54826992	      0.58388407	     -1.06405321	      5.79298511	      1.06741032	     -1.06405321	      4.02994868	      1.06741032	     -0.87627911	      3.27431126	      0.89523037	     -0.81368775	      2.01479803	      0.68002739	     -0.75109638	     25.18638586	      4.96617547	     -5.56983035	      0.00000000	      0.00000000	      1.20959177	      0.03361548	     -2.50162052	      0.00000000	    -90.00000009	      0.00000000	     75.22542377	     89.99559364	      0.00000000	      0.00000000	    -18.69170488	    -11.29981279	     -1.68478730	     37.72926109	     89.99559364	      0.00000000	      0.00000000
      6.10000000	    -18.99699110	     -4.17330298	      3.02401276	     -0.13727153	      0.91721357	      0.33420752	     26.21592701	     -2.58937769	    -23.03579805	      9.83243560	      0.17160837	     13.80412037	      6.01800023	      0.00000000	     16.72701158	    -12.11426555	     10.00725426	     32.45652831	      0.56647328	     11.34398362	    -13.32599106	      0.00000000	      3.51731082	      0.30207475	     -0.93869058	      6.53199792	      0.40175942	     -0.99735874	      5.77858994	      0.73446455	     -0.99735874	      4.01993453	      0.73446455	     -0.82135426	      3.26617483	      0.61599083	     -0.76268609	      2.00979140	      0.46791379	     -0.70401793	     25.12379944	      3.41713000	     -5.22071539	      0.00000000	      0.00000000	      0.27962241	      0.27924384	     -2.63484541	      0.00000000	    -90.00000009	      0.00000000	     75.22498783	     89.99559364	      0.00000000	      0.00000000	    -19.45739268	    -12.06803750	     -1.93371558	     37.70851981	     89.99559364	      0.00000000	      0.00000000
      6.13333333	    -19.89081451	     -2.87588596	      4.51413217	     -0.12190173	      0.91839786	      0.34695903	     26.30252177	     -3.78771869	    -24.85602939	     10.53716426	      0.18390821	     13.92532945	      7.05222622	      0.00000000	     19.68287129	    -10.41406005	     11.34043860	     35.14142679	      0.61333360	      7.51554791	    -17.13171878	      0.00000000	      3.71306032	      0.07830313	     -1.04149411	      6.89552432	      0.10414317	     -1.10658750	      6.10018680	      0.19038624	     -1.10658750	      4.24365664	      0.19038624	     -0.91130735	      3.44794781	      0.15967575	     -0.84621397	      2.12164267	      0.12129156	     -0.78112059	     26.52201854	      0.88578072	     -5.79247782	      0.00000000	      0.00000000	     -0.36664444	      1.47851497	     -3.64514552	      0.00000000	    -90.00000009	      0.00000000	     75.22024378	     89.99559364	      0.00000000	      0.00000000	    -20.87075429	    -12.73103927	     -3.35976464	     38.06750863	     89.99559364	      0.00000000	      0.00000000
      6.16666667	    -19.85802146	     -1.83676786	      5.07028148	     -0.10842124	      0.92079561	      0.36016144	     25.58135580	     -4.13419890	    -25.13522183	     10.98038780	      0.19164392	     13.94671206	      6.96810047	      0.00000000	     21.39556078	     -9.84488240	      9.85691743	     37.06309589	      0.64687305	      5.72173174	    -18.10639895	      0.00000000	      3.71362088	     -0.07220434	     -0.99012677	      6.89656534	     -0.09603178	     -1.05200969	      6.10110775	     -0.17555764	     -1.05200969	      4.24429731	     -0.17555764	     -0.86636092	      3.44846835	     -0.14723909	     -0.80447800	      2.12196297	     -0.11184453	     -0.74259508	     26.52602260	     -0.81678996	     -5.50678806	      0.00000000	      0.00000000	     -0.63795632	      2.13263718	     -4.09318179	      0.00000000	    -90.00000009	      0.00000000	     75.21912764	     89.99559364	      0.00000000	      0.00000000	    -21.55659091	    -13.36774633	     -3.95529302	     38.06795340	     89.99559364	      0.00000000	      0.00000000
      6.20000000	    -20.10657199	     -0.83724946	      5.30407668	     -0.09582214	      0.92278907	      0.37239209	     25.16644664	     -4.39998537	    -25.17903363	     11.28013460	      0.19687549	     14.15615993	      7.06248000	      0.00000000	     22.90606117	     -9.48584168	      7.51611178	     37.77541020	      0.65930528	      5.16954785	    -18.68311160	      0.00000000	      3.76625638	     -0.19893079	     -0.93111940	      6.99431472	     -0.26457794	     -0.98931436	      6.18758260	     -0.48368031	     -0.98931436	      4.30445441	     -0.48368031	     -0.81472947	      3.49734567	     -0.40565966	     -0.75653451	      2.15203889	     -0.30814379	     -0.69833955	     26.90199267	     -2.25034483	     -5.17860674	      0.00000000	      0.00000000	     -1.10214735	      2.57376669	     -4.28080571	      0.00000000	    -90.00000009	      0.00000000	     75.21711146	     89.99559364	      0.00000000	      0.00000000	    -22.54865693	    -13.63255345	     -5.31685456	     38.21753056	     89.99559364	      0.00000000	      0.00000000
